<?xml version="1.0" encoding="utf-8"?>
<!-- Generator: Adobe Illustrator 17.0.0, SVG Export Plug-In . SVG Version: 6.00 Build 0)  -->
<!DOCTYPE svg PUBLIC "-//W3C//DTD SVG 1.1//EN" "http://www.w3.org/Graphics/SVG/1.1/DTD/svg11.dtd">
<svg version="1.1" xmlns="http://www.w3.org/2000/svg" xmlns:xlink="http://www.w3.org/1999/xlink" x="0px" y="0px" width="1526px"
	 height="601.47px" viewBox="0 0 1526 601.47" enable-background="new 0 0 1526 601.47" xml:space="preserve">
<g id="Layer_1" display="none">
	<path display="inline" fill-rule="evenodd" clip-rule="evenodd" fill="#0071BC" d="M54.183,293.972v85.607
		c0,5.296,5.286,9.534,11.654,9.534h103.561c6.323,0,11.654-4.238,11.654-9.534v-85.607c0-6.346-5.331-10.562-11.676-10.562H65.837
		C59.469,283.41,54.183,287.626,54.183,293.972L54.183,293.972L54.183,293.972z"/>
	<path display="inline" fill-rule="evenodd" clip-rule="evenodd" fill="#333333" d="M197.927,316.177v33.826h76.115v183.87
		c0,7.439,5.275,13.784,13.729,15.893c1.038,1.06,3.145,1.06,4.205,1.06H399.81v35.921l98.296-60.255l-98.296-60.224v35.933h-85.596
		V163.978h86.643v35.944l97.249-60.279L400.857,79.42v35.956h-7.394v-1.059h-99.379c-11.599,0-20.042,8.453-20.042,16.896v184.963
		H197.927L197.927,316.177z"/>
	<path display="inline" fill-rule="evenodd" clip-rule="evenodd" fill="#C1272D" d="M556.222,88.945v85.596
		c0,5.275,6.346,10.595,12.659,10.595h102.558c7.383,0,12.658-5.32,12.658-10.595V88.945c0-6.346-5.274-10.561-12.658-10.561H568.88
		C562.568,78.384,556.222,82.599,556.222,88.945L556.222,88.945L556.222,88.945z"/>
	<path display="inline" fill-rule="evenodd" clip-rule="evenodd" fill="#C1272D" d="M671.438,481.043H568.88
		c-6.313,0-12.659,4.228-12.659,9.513v86.666c0,5.309,6.346,9.523,12.659,9.523h102.558c7.383,0,12.658-4.215,12.658-9.523v-86.666
		C684.096,485.271,678.822,481.043,671.438,481.043L671.438,481.043L671.438,481.043z"/>
	<g display="inline">
		<path fill="#333333" d="M870.137,161.501V73.03h28.663v220.488h-28.663V275.88c-13.781,14.241-29.814,21.36-48.095,21.36
			c-21.683,0-40.17-7.67-55.466-23.013c-15.298-15.341-22.946-33.853-22.946-55.536c0-21.68,7.648-40.192,22.946-55.536
			c15.296-15.341,33.783-23.013,55.466-23.013C840.323,140.142,856.357,147.263,870.137,161.501z M870.137,229.302v-21.084
			c-1.654-8.91-6.112-16.995-13.368-24.254c-9.556-9.646-21.132-14.47-34.727-14.47c-13.597,0-25.196,4.823-34.796,14.47
			c-9.601,9.646-14.401,21.222-14.401,34.727c0,13.598,4.8,25.173,14.401,34.727c9.599,9.556,21.198,14.332,34.796,14.332
			c13.595,0,25.171-4.776,34.727-14.332C864.026,246.161,868.484,238.121,870.137,229.302z"/>
		<path fill="#333333" d="M968.668,170.872c10.657-14.422,23.749-22.002,39.275-22.738v29.628
			c-10.383,0.551-18.652,3.906-24.805,10.06c-9.281,9.188-14.103,20.12-14.47,32.798v72.899h-28.525V151.717h28.525V170.872z"/>
		<path fill="#333333" d="M1158.563,161.639v-9.922h28.663v141.939h-28.663V275.88c-13.781,14.241-29.766,21.36-47.956,21.36
			c-21.683,0-40.171-7.648-55.466-22.945c-15.297-15.296-22.945-33.784-22.945-55.466c0-21.68,7.649-40.171,22.945-55.466
			c15.296-15.297,33.783-22.945,55.466-22.945C1128.797,140.417,1144.783,147.493,1158.563,161.639z M1158.563,229.302v-20.946
			c-1.654-8.91-6.063-16.995-13.229-24.254c-9.646-9.554-21.222-14.332-34.727-14.332c-13.597,0-25.197,4.778-34.796,14.332
			c-9.601,9.556-14.401,21.131-14.401,34.727c0,13.505,4.8,25.059,14.401,34.658c9.599,9.601,21.198,14.4,34.796,14.4
			c13.505,0,25.081-4.776,34.727-14.332C1152.5,246.299,1156.91,238.214,1158.563,229.302z"/>
		<path fill="#333333" d="M1261.779,180.105v113.552h-28.663V180.105h-12.678V151.58h12.678v-25.494
			c0.641-11.758,5.144-21.864,13.505-30.317c8.634-8.083,18.649-12.127,30.042-12.127c5.696,0,14.332,1.977,25.907,5.926
			l-9.509,27.01c-8.085-3.398-13.183-5.099-15.296-5.099c-3.859,0-7.579,1.609-11.163,4.823c-3.031,3.032-4.639,6.662-4.823,10.887
			v24.392h25.495v28.526H1261.779z"/>
		<path fill="#333333" d="M1332.199,151.717V98.524h28.525v53.193h25.495v28.526h-25.495v113.276h-28.525V180.243h-25.495v-28.526
			H1332.199z"/>
	</g>
	<g display="inline">
		<path fill="#333333" d="M864.21,534.379l28.526,10.199c-6.983,9.645-12.037,16.033-15.159,19.154
			c-15.344,15.343-33.855,23.013-55.535,23.013c-21.591,0-40.057-7.67-55.399-23.013c-15.343-15.341-23.013-33.853-23.013-55.535
			c0-21.681,7.67-40.192,23.013-55.536c15.342-15.342,33.808-23.014,55.399-23.014c21.68,0,40.191,7.672,55.535,23.014
			c3.122,3.125,8.176,9.418,15.159,18.879l-28.526,10.473c-3.675-4.5-6.156-7.393-7.44-8.681
			C847.213,463.778,835.637,459,822.042,459c-13.506,0-25.059,4.802-34.658,14.4c-9.601,9.601-14.4,21.201-14.4,34.797
			c0,13.504,4.799,25.059,14.4,34.657c9.599,9.601,21.152,14.402,34.658,14.402c13.595,0,25.218-4.777,34.864-14.332
			C858.099,541.639,860.534,538.789,864.21,534.379z"/>
		<path fill="#333333" d="M995.953,429.647c21.68,0,40.169,7.672,55.466,23.014c15.296,15.344,22.944,33.855,22.944,55.536
			c0,21.682-7.648,40.194-22.944,55.535c-15.297,15.343-33.787,23.013-55.466,23.013c-21.591,0-40.057-7.67-55.399-23.013
			c-15.343-15.341-23.013-33.853-23.013-55.535c0-21.681,7.67-40.192,23.013-55.536
			C955.896,437.319,974.362,429.647,995.953,429.647z M961.156,473.471c-9.601,9.645-14.4,21.221-14.4,34.727
			c0,13.597,4.799,25.173,14.4,34.727c9.599,9.555,21.198,14.332,34.797,14.332c13.595,0,25.194-4.777,34.796-14.332
			c9.599-9.554,14.4-21.13,14.4-34.727c0-13.506-4.801-25.082-14.4-34.727c-9.601-9.647-21.201-14.47-34.796-14.47
			C982.354,459,970.755,463.823,961.156,473.471z"/>
		<path fill="#333333" d="M1230.497,451.008v-88.471h28.663v220.488h-28.663v-17.639c-13.781,14.241-29.814,21.359-48.095,21.359
			c-21.683,0-40.171-7.67-55.466-23.013c-15.297-15.341-22.945-33.853-22.945-55.535c0-21.681,7.649-40.192,22.945-55.536
			c15.296-15.342,33.783-23.014,55.466-23.014C1200.683,429.647,1216.717,436.768,1230.497,451.008z M1230.497,518.808v-21.084
			c-1.654-8.911-6.112-16.996-13.368-24.254c-9.556-9.647-21.132-14.47-34.727-14.47c-13.597,0-25.196,4.823-34.796,14.47
			c-9.601,9.645-14.402,21.221-14.402,34.727c0,13.597,4.8,25.173,14.402,34.727c9.599,9.555,21.198,14.332,34.796,14.332
			c13.595,0,25.171-4.777,34.727-14.332C1224.385,535.667,1228.844,527.628,1230.497,518.808z"/>
		<path fill="#333333" d="M1344.599,550.916c4.775,4.228,13.458,6.34,26.046,6.34c13.595,0,25.218-4.777,34.864-14.332
			c1.192-1.286,3.628-4.135,7.303-8.545l28.526,10.199c-6.983,9.645-12.037,16.033-15.159,19.154
			c-15.344,15.343-33.855,23.013-55.535,23.013c-21.591,0-40.057-7.67-55.399-23.013c-15.343-15.341-23.013-33.853-23.013-55.535
			c0-21.681,7.67-40.192,23.013-55.536c15.342-15.342,33.808-23.014,55.399-23.014c18.556,0,34.817,5.606,48.782,16.813
			c2.296,1.928,4.548,3.996,6.753,6.201c0.917,0.92,3.536,3.814,7.855,8.682l-14.332,14.469L1344.599,550.916z M1392.279,462.721
			c-3.217-2.479-10.428-3.72-21.635-3.72c-13.506,0-25.059,4.802-34.658,14.4c-9.601,9.601-14.4,21.201-14.4,34.797
			c0,11.117,1.24,18.328,3.72,21.635L1392.279,462.721z"/>
	</g>
</g>
<g id="Layer_2" display="none">
	<path display="inline" fill="#333333" d="M773,507.893h-29c0,0-0.233-4.4-0.156-5.865c0.794-15.089,7.057-27.387,7.057-27.387
		l83.048-178.482c0,0,36.051-49.842,36.051-70.548c0-2.625,0-6.719,0-6.719h29l-28.863,56.987l-94.395,212.616L773,507.893z"/>
</g>
<g id="Layer_3" display="none">
	<g>
		<path display="inline" fill="#333333" d="M870.137,160.501V72.03h28.663v220.488h-28.663V274.88
			c-13.781,14.241-29.814,21.36-48.095,21.36c-21.683,0-40.17-7.67-55.466-23.013c-15.298-15.341-22.946-33.853-22.946-55.536
			c0-21.68,7.648-40.192,22.946-55.536c15.296-15.341,33.783-23.013,55.466-23.013C840.323,139.142,856.357,146.263,870.137,160.501
			z M870.137,228.302v-21.084c-1.654-8.91-6.112-16.995-13.368-24.254c-9.556-9.646-21.132-14.47-34.727-14.47
			c-13.597,0-25.196,4.823-34.796,14.47c-9.601,9.646-14.401,21.222-14.401,34.727c0,13.598,4.8,25.173,14.401,34.727
			c9.599,9.556,21.198,14.332,34.796,14.332c13.595,0,25.171-4.776,34.727-14.332C864.026,245.161,868.484,237.121,870.137,228.302z
			"/>
		<path display="inline" fill="#333333" d="M968.668,169.872c10.657-14.422,23.749-22.002,39.275-22.738v29.628
			c-10.383,0.551-18.652,3.906-24.805,10.06c-9.281,9.188-14.103,20.12-14.47,32.798v72.899h-28.525V150.717h28.525V169.872z"/>
		<path display="inline" fill="#333333" d="M1158.563,160.639v-9.922h28.663v141.939h-28.663V274.88
			c-13.781,14.241-29.766,21.36-47.956,21.36c-21.683,0-40.171-7.648-55.466-22.945c-15.297-15.296-22.945-33.784-22.945-55.466
			c0-21.68,7.649-40.171,22.945-55.466c15.296-15.297,33.783-22.945,55.466-22.945
			C1128.797,139.417,1144.783,146.493,1158.563,160.639z M1158.563,228.302v-20.946c-1.654-8.91-6.063-16.995-13.229-24.254
			c-9.646-9.554-21.222-14.332-34.727-14.332c-13.597,0-25.197,4.778-34.796,14.332c-9.601,9.556-14.401,21.131-14.401,34.727
			c0,13.505,4.8,25.059,14.401,34.658c9.599,9.601,21.198,14.4,34.796,14.4c13.505,0,25.081-4.776,34.727-14.332
			C1152.5,245.299,1156.91,237.214,1158.563,228.302z"/>
		<path display="inline" fill="#333333" d="M1261.779,179.105v113.552h-28.663V179.105h-12.678V150.58h12.678v-25.494
			c0.641-11.758,5.144-21.864,13.505-30.317c8.634-8.083,18.649-12.127,30.042-12.127c5.696,0,14.332,1.977,25.907,5.926
			l-9.509,27.01c-8.085-3.398-13.183-5.099-15.296-5.099c-3.859,0-7.579,1.609-11.163,4.823c-3.031,3.032-4.639,6.662-4.823,10.887
			v24.392h25.495v28.526H1261.779z"/>
		<path display="inline" fill="#333333" d="M1332.199,150.717V97.524h28.525v53.193h25.495v28.526h-25.495v113.276h-28.525V179.243
			h-25.495v-28.526H1332.199z"/>
	</g>
	<g display="inline">
		<path fill="#333333" d="M864.21,533.379l28.526,10.199c-6.983,9.645-12.037,16.033-15.159,19.154
			c-15.344,15.343-33.855,23.013-55.535,23.013c-21.591,0-40.057-7.67-55.399-23.013c-15.343-15.341-23.013-33.853-23.013-55.535
			c0-21.681,7.67-40.192,23.013-55.536c15.342-15.342,33.808-23.014,55.399-23.014c21.68,0,40.191,7.672,55.535,23.014
			c3.122,3.125,8.176,9.418,15.159,18.879l-28.526,10.473c-3.675-4.5-6.156-7.393-7.44-8.681
			C847.213,462.778,835.637,458,822.042,458c-13.506,0-25.059,4.802-34.658,14.4c-9.601,9.601-14.4,21.201-14.4,34.797
			c0,13.504,4.799,25.059,14.4,34.657c9.599,9.601,21.152,14.402,34.658,14.402c13.595,0,25.218-4.777,34.864-14.332
			C858.099,540.639,860.534,537.789,864.21,533.379z"/>
		<path fill="#333333" d="M995.953,428.647c21.68,0,40.169,7.672,55.466,23.014c15.296,15.344,22.944,33.855,22.944,55.536
			c0,21.682-7.648,40.194-22.944,55.535c-15.297,15.343-33.787,23.013-55.466,23.013c-21.591,0-40.057-7.67-55.399-23.013
			c-15.343-15.341-23.013-33.853-23.013-55.535c0-21.681,7.67-40.192,23.013-55.536
			C955.896,436.319,974.362,428.647,995.953,428.647z M961.156,472.471c-9.601,9.645-14.4,21.221-14.4,34.727
			c0,13.597,4.799,25.173,14.4,34.727c9.599,9.555,21.198,14.332,34.797,14.332c13.595,0,25.194-4.777,34.796-14.332
			c9.599-9.554,14.4-21.13,14.4-34.727c0-13.506-4.801-25.082-14.4-34.727c-9.601-9.647-21.201-14.47-34.796-14.47
			C982.354,458,970.755,462.823,961.156,472.471z"/>
		<path fill="#333333" d="M1230.497,450.008v-88.471h28.663v220.488h-28.663v-17.639c-13.781,14.241-29.814,21.359-48.095,21.359
			c-21.683,0-40.171-7.67-55.466-23.013c-15.297-15.341-22.945-33.853-22.945-55.535c0-21.681,7.649-40.192,22.945-55.536
			c15.296-15.342,33.783-23.014,55.466-23.014C1200.683,428.647,1216.717,435.768,1230.497,450.008z M1230.497,517.808v-21.084
			c-1.654-8.911-6.112-16.996-13.368-24.254c-9.556-9.647-21.132-14.47-34.727-14.47c-13.597,0-25.196,4.823-34.796,14.47
			c-9.601,9.645-14.402,21.221-14.402,34.727c0,13.597,4.8,25.173,14.402,34.727c9.599,9.555,21.198,14.332,34.796,14.332
			c13.595,0,25.171-4.777,34.727-14.332C1224.385,534.667,1228.844,526.628,1230.497,517.808z"/>
		<path fill="#333333" d="M1344.599,549.916c4.775,4.228,13.458,6.34,26.046,6.34c13.595,0,25.218-4.777,34.864-14.332
			c1.192-1.286,3.628-4.135,7.303-8.545l28.526,10.199c-6.983,9.645-12.037,16.033-15.159,19.154
			c-15.344,15.343-33.855,23.013-55.535,23.013c-21.591,0-40.057-7.67-55.399-23.013c-15.343-15.341-23.013-33.853-23.013-55.535
			c0-21.681,7.67-40.192,23.013-55.536c15.342-15.342,33.808-23.014,55.399-23.014c18.556,0,34.817,5.606,48.782,16.813
			c2.296,1.928,4.548,3.996,6.753,6.201c0.917,0.92,3.536,3.814,7.855,8.682l-14.332,14.469L1344.599,549.916z M1392.279,461.721
			c-3.217-2.479-10.428-3.72-21.635-3.72c-13.506,0-25.059,4.802-34.658,14.4c-9.601,9.601-14.4,21.201-14.4,34.797
			c0,11.117,1.24,18.328,3.72,21.635L1392.279,461.721z"/>
	</g>
	<path display="inline" fill="#333333" d="M773,506.893h-29c0,0-0.233-4.4-0.156-5.865c0.794-15.089,7.057-27.387,7.057-27.387
		l83.048-178.482c0,0,36.051-49.842,36.051-70.548c0-2.625,0-6.719,0-6.719h29l-28.863,56.987l-94.395,212.616L773,506.893z"/>
</g>
<g id="Layer_4" display="none">
	<g display="inline">
		<path fill-rule="evenodd" clip-rule="evenodd" fill="#0071BC" d="M49.992,264.941v85.607c0,5.296,5.286,9.534,11.654,9.534
			h103.562c6.323,0,11.654-4.238,11.654-9.534v-85.607c0-6.346-5.331-10.561-11.676-10.561H61.646
			C55.278,254.38,49.992,258.595,49.992,264.941L49.992,264.941L49.992,264.941z"/>
		<path fill-rule="evenodd" clip-rule="evenodd" fill="#333333" d="M234.873,287.146v33.826h76.115v183.87
			c0,7.439,5.275,13.784,13.729,15.893c1.038,1.06,3.145,1.06,4.205,1.06h107.834v35.921l98.296-60.255l-98.296-60.224v35.933
			H351.16V134.948h86.643v35.944l97.249-60.279L437.803,50.39v35.956h-7.394v-1.059H331.03c-11.599,0-20.042,8.453-20.042,16.896
			v184.963H234.873L234.873,287.146z"/>
		<path fill-rule="evenodd" clip-rule="evenodd" fill="#C1272D" d="M593.168,59.914v85.596c0,5.275,6.346,10.595,12.659,10.595
			h102.558c7.383,0,12.658-5.32,12.658-10.595V59.914c0-6.346-5.274-10.561-12.658-10.561H605.827
			C599.514,49.353,593.168,53.568,593.168,59.914L593.168,59.914L593.168,59.914z"/>
		<path fill-rule="evenodd" clip-rule="evenodd" fill="#C1272D" d="M708.385,452.013H605.827c-6.313,0-12.659,4.227-12.659,9.513
			v86.666c0,5.309,6.346,9.523,12.659,9.523h102.558c7.383,0,12.658-4.215,12.658-9.523v-86.666
			C721.043,456.24,715.768,452.013,708.385,452.013L708.385,452.013L708.385,452.013z"/>
		<g>
			<g>
				<path fill="#333333" d="M905.084,132.471V44h28.664v220.488h-28.664v-17.639c-13.781,14.241-29.814,21.36-48.095,21.36
					c-21.683,0-40.171-7.67-55.466-23.013c-15.297-15.341-22.946-33.853-22.946-55.536c0-21.68,7.648-40.192,22.946-55.536
					c15.296-15.341,33.783-23.013,55.466-23.013C875.27,111.111,891.303,118.232,905.084,132.471z M905.084,200.271v-21.084
					c-1.654-8.91-6.112-16.995-13.368-24.254c-9.556-9.646-21.132-14.47-34.727-14.47c-13.597,0-25.196,4.823-34.796,14.47
					c-9.601,9.646-14.401,21.222-14.401,34.727c0,13.598,4.8,25.173,14.401,34.727c9.599,9.556,21.198,14.332,34.796,14.332
					c13.595,0,25.171-4.776,34.727-14.332C898.972,217.131,903.43,209.091,905.084,200.271z"/>
				<path fill="#333333" d="M1003.614,141.842c10.657-14.422,23.749-22.002,39.275-22.738v29.628
					c-10.383,0.551-18.651,3.906-24.805,10.06c-9.281,9.188-14.103,20.12-14.47,32.798v72.899h-28.525V122.687h28.525V141.842z"/>
				<path fill="#333333" d="M1193.51,132.609v-9.922h28.664v141.939h-28.664v-17.777c-13.781,14.241-29.766,21.36-47.956,21.36
					c-21.683,0-40.171-7.648-55.466-22.945c-15.297-15.296-22.945-33.784-22.945-55.466c0-21.68,7.648-40.171,22.945-55.466
					c15.296-15.297,33.783-22.945,55.466-22.945C1163.744,111.387,1179.729,118.462,1193.51,132.609z M1193.51,200.271v-20.946
					c-1.654-8.91-6.063-16.995-13.229-24.254c-9.646-9.554-21.222-14.332-34.727-14.332c-13.597,0-25.196,4.778-34.796,14.332
					c-9.601,9.556-14.401,21.131-14.401,34.727c0,13.505,4.8,25.059,14.401,34.658c9.599,9.601,21.198,14.4,34.796,14.4
					c13.505,0,25.081-4.776,34.727-14.332C1187.446,217.268,1191.856,209.183,1193.51,200.271z"/>
				<path fill="#333333" d="M1296.725,151.075v113.552h-28.664V151.075h-12.678v-28.526h12.678V97.055
					c0.641-11.758,5.144-21.864,13.505-30.317c8.634-8.083,18.649-12.127,30.042-12.127c5.696,0,14.332,1.977,25.907,5.926
					l-9.509,27.01c-8.085-3.398-13.183-5.099-15.296-5.099c-3.859,0-7.579,1.609-11.163,4.823
					c-3.031,3.032-4.639,6.662-4.823,10.887v24.392h25.495v28.526H1296.725z"/>
				<path fill="#333333" d="M1367.146,122.687V69.494h28.525v53.193h25.495v28.526h-25.495v113.276h-28.525V151.212h-25.495v-28.526
					H1367.146z"/>
			</g>
			<g>
				<path fill="#333333" d="M899.156,505.349l28.526,10.199c-6.982,9.645-12.037,16.033-15.159,19.154
					c-15.344,15.343-33.855,23.013-55.535,23.013c-21.591,0-40.057-7.67-55.399-23.013c-15.343-15.341-23.013-33.853-23.013-55.535
					c0-21.681,7.67-40.192,23.013-55.536c15.342-15.342,33.808-23.014,55.399-23.014c21.68,0,40.191,7.672,55.535,23.014
					c3.122,3.125,8.176,9.418,15.159,18.879l-28.526,10.473c-3.675-4.5-6.156-7.393-7.44-8.681
					c-9.556-9.554-21.132-14.332-34.727-14.332c-13.506,0-25.059,4.802-34.658,14.4c-9.601,9.601-14.4,21.201-14.4,34.797
					c0,13.504,4.799,25.059,14.4,34.657c9.599,9.601,21.152,14.401,34.658,14.401c13.595,0,25.218-4.776,34.864-14.332
					C893.045,512.608,895.481,509.758,899.156,505.349z"/>
				<path fill="#333333" d="M1030.899,400.617c21.68,0,40.169,7.672,55.466,23.014c15.296,15.344,22.944,33.855,22.944,55.536
					c0,21.682-7.649,40.194-22.944,55.535c-15.297,15.343-33.786,23.013-55.466,23.013c-21.591,0-40.057-7.67-55.399-23.013
					c-15.343-15.341-23.013-33.853-23.013-55.535c0-21.681,7.67-40.192,23.013-55.536
					C990.842,408.289,1009.308,400.617,1030.899,400.617z M996.102,444.44c-9.601,9.645-14.4,21.221-14.4,34.727
					c0,13.597,4.799,25.173,14.4,34.727c9.599,9.555,21.198,14.332,34.797,14.332c13.595,0,25.194-4.776,34.796-14.332
					c9.599-9.554,14.4-21.13,14.4-34.727c0-13.506-4.801-25.082-14.4-34.727c-9.601-9.647-21.201-14.47-34.796-14.47
					C1017.301,429.97,1005.701,434.792,996.102,444.44z"/>
				<path fill="#333333" d="M1265.444,421.977v-88.471h28.664v220.488h-28.664v-17.639c-13.781,14.241-29.814,21.359-48.095,21.359
					c-21.683,0-40.171-7.67-55.466-23.013c-15.297-15.341-22.945-33.853-22.945-55.535c0-21.681,7.648-40.192,22.945-55.536
					c15.296-15.342,33.783-23.014,55.466-23.014C1235.629,400.617,1251.663,407.738,1265.444,421.977z M1265.444,489.777v-21.084
					c-1.654-8.911-6.112-16.996-13.368-24.254c-9.556-9.647-21.132-14.47-34.727-14.47c-13.597,0-25.196,4.823-34.796,14.47
					c-9.601,9.645-14.401,21.221-14.401,34.727c0,13.597,4.8,25.173,14.401,34.727c9.599,9.555,21.198,14.332,34.796,14.332
					c13.595,0,25.171-4.776,34.727-14.332C1259.332,506.637,1263.79,498.597,1265.444,489.777z"/>
				<path fill="#333333" d="M1379.545,521.885c4.775,4.227,13.458,6.34,26.046,6.34c13.595,0,25.218-4.776,34.864-14.332
					c1.193-1.286,3.628-4.135,7.303-8.545l28.526,10.199c-6.982,9.645-12.037,16.033-15.159,19.154
					c-15.344,15.343-33.855,23.013-55.535,23.013c-21.591,0-40.057-7.67-55.399-23.013c-15.343-15.341-23.013-33.853-23.013-55.535
					c0-21.681,7.67-40.192,23.013-55.536c15.342-15.342,33.808-23.014,55.399-23.014c18.556,0,34.817,5.606,48.782,16.813
					c2.296,1.928,4.548,3.996,6.753,6.201c0.917,0.92,3.536,3.814,7.855,8.682l-14.332,14.469L1379.545,521.885z M1427.226,433.69
					c-3.217-2.479-10.428-3.72-21.635-3.72c-13.506,0-25.059,4.802-34.658,14.4c-9.601,9.601-14.4,21.201-14.4,34.797
					c0,11.117,1.24,18.328,3.72,21.635L1427.226,433.69z"/>
			</g>
			<g>
				<path fill="#333333" d="M899.156,504.349l28.526,10.199c-6.982,9.645-12.037,16.033-15.159,19.154
					c-15.344,15.343-33.855,23.013-55.535,23.013c-21.591,0-40.057-7.67-55.399-23.013c-15.343-15.341-23.013-33.853-23.013-55.535
					c0-21.681,7.67-40.192,23.013-55.536c15.342-15.342,33.808-23.014,55.399-23.014c21.68,0,40.191,7.672,55.535,23.014
					c3.122,3.125,8.176,9.418,15.159,18.879l-28.526,10.473c-3.675-4.5-6.156-7.393-7.44-8.681
					c-9.556-9.554-21.132-14.332-34.727-14.332c-13.506,0-25.059,4.802-34.658,14.4c-9.601,9.601-14.4,21.201-14.4,34.797
					c0,13.504,4.799,25.059,14.4,34.657c9.599,9.601,21.152,14.401,34.658,14.401c13.595,0,25.218-4.776,34.864-14.332
					C893.045,511.608,895.481,508.758,899.156,504.349z"/>
				<path fill="#333333" d="M1030.899,399.617c21.68,0,40.169,7.672,55.466,23.014c15.296,15.344,22.944,33.855,22.944,55.536
					c0,21.682-7.649,40.194-22.944,55.535c-15.297,15.343-33.786,23.013-55.466,23.013c-21.591,0-40.057-7.67-55.399-23.013
					c-15.343-15.341-23.013-33.853-23.013-55.535c0-21.681,7.67-40.192,23.013-55.536
					C990.842,407.289,1009.308,399.617,1030.899,399.617z M996.102,443.44c-9.601,9.645-14.4,21.221-14.4,34.727
					c0,13.597,4.799,25.173,14.4,34.727c9.599,9.555,21.198,14.332,34.797,14.332c13.595,0,25.194-4.776,34.796-14.332
					c9.599-9.554,14.4-21.13,14.4-34.727c0-13.506-4.801-25.082-14.4-34.727c-9.601-9.647-21.201-14.47-34.796-14.47
					C1017.301,428.97,1005.701,433.792,996.102,443.44z"/>
				<path fill="#333333" d="M1265.444,420.977v-88.471h28.664v220.488h-28.664v-17.639c-13.781,14.241-29.814,21.359-48.095,21.359
					c-21.683,0-40.171-7.67-55.466-23.013c-15.297-15.341-22.945-33.853-22.945-55.535c0-21.681,7.648-40.192,22.945-55.536
					c15.296-15.342,33.783-23.014,55.466-23.014C1235.629,399.617,1251.663,406.738,1265.444,420.977z M1265.444,488.777v-21.084
					c-1.654-8.911-6.112-16.996-13.368-24.254c-9.556-9.647-21.132-14.47-34.727-14.47c-13.597,0-25.196,4.823-34.796,14.47
					c-9.601,9.645-14.401,21.221-14.401,34.727c0,13.597,4.8,25.173,14.401,34.727c9.599,9.555,21.198,14.332,34.796,14.332
					c13.595,0,25.171-4.776,34.727-14.332C1259.332,505.637,1263.79,497.597,1265.444,488.777z"/>
				<path fill="#333333" d="M1379.545,520.885c4.775,4.227,13.458,6.34,26.046,6.34c13.595,0,25.218-4.776,34.864-14.332
					c1.193-1.286,3.628-4.135,7.303-8.545l28.526,10.199c-6.982,9.645-12.037,16.033-15.159,19.154
					c-15.344,15.343-33.855,23.013-55.535,23.013c-21.591,0-40.057-7.67-55.399-23.013c-15.343-15.341-23.013-33.853-23.013-55.535
					c0-21.681,7.67-40.192,23.013-55.536c15.342-15.342,33.808-23.014,55.399-23.014c18.556,0,34.817,5.606,48.782,16.813
					c2.296,1.928,4.548,3.996,6.753,6.201c0.917,0.92,3.536,3.814,7.855,8.682l-14.332,14.469L1379.545,520.885z M1427.226,432.69
					c-3.217-2.479-10.428-3.72-21.635-3.72c-13.506,0-25.059,4.802-34.658,14.4c-9.601,9.601-14.4,21.201-14.4,34.797
					c0,11.117,1.24,18.328,3.72,21.635L1427.226,432.69z"/>
			</g>
			<path fill="#333333" d="M807.792,477.893h-29c0,0-0.233-4.434-0.156-5.898c0.794-15.089,7.057-27.403,7.057-27.403l83.152-178.49
				c0,0,36.155-49.85,36.155-70.556c0-2.625,0-6.652,0-6.652h28.792l-28.863,56.954l-94.395,212.632L807.792,477.893z"/>
		</g>
	</g>
</g>
<g id="Layer_5">
	<g>
		<path fill-rule="evenodd" clip-rule="evenodd" fill="#0071BC" d="M49.992,263.941v85.607c0,5.296,5.286,9.534,11.654,9.534
			h103.562c6.323,0,11.654-4.238,11.654-9.534v-85.607c0-6.346-5.331-10.561-11.676-10.561H61.646
			C55.278,253.38,49.992,257.595,49.992,263.941L49.992,263.941L49.992,263.941z"/>
	</g>
	<g>
		<path fill-rule="evenodd" clip-rule="evenodd" fill="#333333" d="M234.873,286.146v33.826h76.115v183.87
			c0,7.439,5.275,13.784,13.729,15.893c1.038,1.06,3.145,1.06,4.205,1.06h107.834v35.921l98.296-60.255l-98.296-60.224v35.933
			H351.16V133.948h86.643v35.944l97.249-60.279L437.803,49.39V84.19l-7.394,0.096l0,0H331.03c-11.599,0-20.042,8.453-20.042,16.896
			v184.963H234.873L234.873,286.146z"/>
	</g>
	<g>
		<path fill-rule="evenodd" clip-rule="evenodd" fill="#C1272D" d="M593.168,58.914v85.596c0,5.275,6.346,10.595,12.659,10.595
			h102.558c7.383,0,12.658-5.32,12.658-10.595V58.914c0-6.346-5.274-10.561-12.658-10.561H605.827
			C599.514,48.353,593.168,52.568,593.168,58.914L593.168,58.914L593.168,58.914z"/>
		<path fill-rule="evenodd" clip-rule="evenodd" fill="#C1272D" d="M708.385,451.013H605.827c-6.313,0-12.659,4.227-12.659,9.513
			v86.666c0,5.309,6.346,9.523,12.659,9.523h102.558c7.383,0,12.658-4.215,12.658-9.523v-86.666
			C721.043,455.24,715.768,451.013,708.385,451.013L708.385,451.013L708.385,451.013z"/>
	</g>
	<g>
		<polygon fill="#333333" points="834.526,402.708 790.6,436.122 869,266.893 905.084,245.849 		"/>
		<g>
			<path fill="#0071BC" d="M905.084,131.471V43h28.664v220.488h-28.664v-17.639c-13.781,14.241-29.814,21.36-48.095,21.36
				c-21.683,0-40.171-7.67-55.466-23.013c-15.297-15.341-22.946-33.853-22.946-55.536c0-21.68,7.648-40.192,22.946-55.536
				c15.296-15.341,33.783-23.013,55.466-23.013C875.27,110.111,891.303,117.232,905.084,131.471z M905.084,199.271v-21.084
				c-1.654-8.91-6.112-16.995-13.368-24.254c-9.556-9.646-21.132-14.47-34.727-14.47c-13.597,0-25.196,4.823-34.796,14.47
				c-9.601,9.646-14.401,21.222-14.401,34.727c0,13.598,4.8,25.173,14.401,34.727c9.599,9.556,21.198,14.332,34.796,14.332
				c13.595,0,25.171-4.776,34.727-14.332C898.972,216.131,903.43,208.091,905.084,199.271z"/>
			<path fill="#333333" d="M1003.614,140.842c10.657-14.422,23.749-22.002,39.275-22.738v29.628
				c-10.383,0.551-18.651,3.906-24.805,10.06c-9.281,9.188-14.103,20.12-14.47,32.798v72.899h-28.525V121.687h28.525V140.842z"/>
			<path fill="#333333" d="M1193.51,131.609v-9.922h28.664v141.939h-28.664v-17.777c-13.781,14.241-29.766,21.36-47.956,21.36
				c-21.683,0-40.171-7.648-55.466-22.945c-15.297-15.296-22.945-33.784-22.945-55.466c0-21.68,7.648-40.171,22.945-55.466
				c15.296-15.297,33.783-22.945,55.466-22.945C1163.744,110.387,1179.729,117.462,1193.51,131.609z M1193.51,199.271v-20.946
				c-1.654-8.91-6.063-16.995-13.229-24.254c-9.646-9.554-21.222-14.332-34.727-14.332c-13.597,0-25.196,4.778-34.796,14.332
				c-9.601,9.556-14.401,21.131-14.401,34.727c0,13.505,4.8,25.059,14.401,34.658c9.599,9.601,21.198,14.4,34.796,14.4
				c13.505,0,25.081-4.776,34.727-14.332C1187.446,216.268,1191.856,208.183,1193.51,199.271z"/>
			<path fill="#333333" d="M1296.725,150.075v113.552h-28.664V150.075h-12.678v-28.526h12.678V96.055
				c0.641-11.758,5.144-21.864,13.505-30.317c8.634-8.083,18.649-12.127,30.042-12.127c5.696,0,14.332,1.977,25.907,5.926
				l-9.509,27.01c-8.085-3.398-13.183-5.099-15.296-5.099c-3.859,0-7.579,1.609-11.163,4.823c-3.031,3.032-4.639,6.662-4.823,10.887
				v24.392h25.495v28.526H1296.725z"/>
			<path fill="#333333" d="M1367.146,121.687V68.494h28.525v53.193h25.495v28.526h-25.495v113.276h-28.525V150.212h-25.495v-28.526
				H1367.146z"/>
		</g>
		<g>
			<path fill="#333333" d="M899.156,504.349l28.526,10.199c-6.982,9.645-12.037,16.033-15.159,19.154
				c-15.344,15.343-33.855,23.013-55.535,23.013c-21.591,0-40.057-7.67-55.399-23.013c-15.343-15.341-23.013-33.853-23.013-55.535
				c0-21.681,7.67-40.192,23.013-55.536c15.342-15.342,33.808-23.014,55.399-23.014c21.68,0,40.191,7.672,55.535,23.014
				c3.122,3.125,8.176,9.418,15.159,18.879l-28.526,10.473c-3.675-4.5-6.156-7.393-7.44-8.681
				c-9.556-9.554-21.132-14.332-34.727-14.332c-13.506,0-25.059,4.802-34.658,14.4c-9.601,9.601-14.4,21.201-14.4,34.797
				c0,13.504,4.799,25.059,14.4,34.657c9.599,9.601,21.152,14.401,34.658,14.401c13.595,0,25.218-4.776,34.864-14.332
				C893.045,511.608,895.481,508.758,899.156,504.349z"/>
			<path fill="#333333" d="M1030.899,399.617c21.68,0,40.169,7.672,55.466,23.014c15.296,15.344,22.944,33.855,22.944,55.536
				c0,21.682-7.649,40.194-22.944,55.535c-15.297,15.343-33.786,23.013-55.466,23.013c-21.591,0-40.057-7.67-55.399-23.013
				c-15.343-15.341-23.013-33.853-23.013-55.535c0-21.681,7.67-40.192,23.013-55.536
				C990.842,407.289,1009.308,399.617,1030.899,399.617z M996.102,443.44c-9.601,9.645-14.4,21.221-14.4,34.727
				c0,13.597,4.799,25.173,14.4,34.727c9.599,9.555,21.198,14.332,34.797,14.332c13.595,0,25.194-4.776,34.796-14.332
				c9.599-9.554,14.4-21.13,14.4-34.727c0-13.506-4.801-25.082-14.4-34.727c-9.601-9.647-21.201-14.47-34.796-14.47
				C1017.301,428.97,1005.701,433.792,996.102,443.44z"/>
			<path fill="#333333" d="M1265.444,420.977v-88.471h28.664v220.488h-28.664v-17.639c-13.781,14.241-29.814,21.359-48.095,21.359
				c-21.683,0-40.171-7.67-55.466-23.013c-15.297-15.341-22.945-33.853-22.945-55.535c0-21.681,7.648-40.192,22.945-55.536
				c15.296-15.342,33.783-23.014,55.466-23.014C1235.629,399.617,1251.663,406.738,1265.444,420.977z M1265.444,488.777v-21.084
				c-1.654-8.911-6.112-16.996-13.368-24.254c-9.556-9.647-21.132-14.47-34.727-14.47c-13.597,0-25.196,4.823-34.796,14.47
				c-9.601,9.645-14.401,21.221-14.401,34.727c0,13.597,4.8,25.173,14.401,34.727c9.599,9.555,21.198,14.332,34.796,14.332
				c13.595,0,25.171-4.776,34.727-14.332C1259.332,505.637,1263.79,497.597,1265.444,488.777z"/>
			<path fill="#333333" d="M1379.545,520.885c4.775,4.227,13.458,6.34,26.046,6.34c13.595,0,25.218-4.776,34.864-14.332
				c1.193-1.286,3.628-4.135,7.303-8.545l28.526,10.199c-6.982,9.645-12.037,16.033-15.159,19.154
				c-15.344,15.343-33.855,23.013-55.535,23.013c-21.591,0-40.057-7.67-55.399-23.013c-15.343-15.341-23.013-33.853-23.013-55.535
				c0-21.681,7.67-40.192,23.013-55.536c15.342-15.342,33.808-23.014,55.399-23.014c18.556,0,34.817,5.606,48.782,16.813
				c2.296,1.928,4.548,3.996,6.753,6.201c0.917,0.92,3.536,3.814,7.855,8.682l-14.332,14.469L1379.545,520.885z M1427.226,432.69
				c-3.217-2.479-10.428-3.72-21.635-3.72c-13.506,0-25.059,4.802-34.658,14.4c-9.601,9.601-14.4,21.201-14.4,34.797
				c0,11.117,1.24,18.328,3.72,21.635L1427.226,432.69z"/>
		</g>
		<g>
			<path fill="#C1272D" d="M899.156,503.349l28.526,10.199c-6.982,9.645-12.037,16.033-15.159,19.154
				c-15.344,15.343-33.855,23.013-55.535,23.013c-21.591,0-40.057-7.67-55.399-23.013c-15.343-15.341-23.013-33.853-23.013-55.535
				c0-21.681,7.67-40.192,23.013-55.536c15.342-15.342,33.808-23.014,55.399-23.014c21.68,0,40.191,7.672,55.535,23.014
				c3.122,3.125,8.176,9.418,15.159,18.879l-28.526,10.473c-3.675-4.5-6.156-7.393-7.44-8.681
				c-9.556-9.554-21.132-14.332-34.727-14.332c-13.506,0-25.059,4.802-34.658,14.4c-9.601,9.601-14.4,21.201-14.4,34.797
				c0,13.504,4.799,25.059,14.4,34.657c9.599,9.601,21.152,14.402,34.658,14.402c13.595,0,25.218-4.776,34.864-14.332
				C893.045,510.608,895.481,507.758,899.156,503.349z"/>
			<path fill="#333333" d="M1030.899,398.617c21.68,0,40.169,7.672,55.466,23.014c15.296,15.344,22.944,33.855,22.944,55.536
				c0,21.682-7.649,40.194-22.944,55.535c-15.297,15.343-33.786,23.013-55.466,23.013c-21.591,0-40.057-7.67-55.399-23.013
				c-15.343-15.341-23.013-33.853-23.013-55.535c0-21.681,7.67-40.192,23.013-55.536
				C990.842,406.289,1009.308,398.617,1030.899,398.617z M996.102,442.44c-9.601,9.645-14.4,21.221-14.4,34.727
				c0,13.597,4.799,25.173,14.4,34.727c9.599,9.555,21.198,14.332,34.797,14.332c13.595,0,25.194-4.776,34.796-14.332
				c9.599-9.554,14.4-21.13,14.4-34.727c0-13.506-4.801-25.082-14.4-34.727c-9.601-9.647-21.201-14.47-34.796-14.47
				C1017.301,427.97,1005.701,432.792,996.102,442.44z"/>
			<path fill="#333333" d="M1265.444,419.977v-88.471h28.664v220.488h-28.664v-17.639c-13.781,14.241-29.814,21.359-48.095,21.359
				c-21.683,0-40.171-7.67-55.466-23.013c-15.297-15.341-22.945-33.853-22.945-55.535c0-21.681,7.648-40.192,22.945-55.536
				c15.296-15.342,33.783-23.014,55.466-23.014C1235.629,398.617,1251.663,405.738,1265.444,419.977z M1265.444,487.777v-21.084
				c-1.654-8.911-6.112-16.996-13.368-24.254c-9.556-9.647-21.132-14.47-34.727-14.47c-13.597,0-25.196,4.823-34.796,14.47
				c-9.601,9.645-14.401,21.221-14.401,34.727c0,13.597,4.8,25.173,14.401,34.727c9.599,9.555,21.198,14.332,34.796,14.332
				c13.595,0,25.171-4.776,34.727-14.332C1259.332,504.637,1263.79,496.597,1265.444,487.777z"/>
			<path fill="#333333" d="M1379.545,519.885c4.775,4.227,13.458,6.34,26.046,6.34c13.595,0,25.218-4.776,34.864-14.332
				c1.193-1.286,3.628-4.135,7.303-8.545l28.526,10.199c-6.982,9.645-12.037,16.033-15.159,19.154
				c-15.344,15.343-33.855,23.013-55.535,23.013c-21.591,0-40.057-7.67-55.399-23.013c-15.343-15.341-23.013-33.853-23.013-55.535
				c0-21.681,7.67-40.192,23.013-55.536c15.342-15.342,33.808-23.014,55.399-23.014c18.556,0,34.817,5.606,48.782,16.813
				c2.296,1.928,4.548,3.996,6.753,6.201c0.917,0.92,3.536,3.814,7.855,8.682l-14.332,14.469L1379.545,519.885z M1427.226,431.69
				c-3.217-2.479-10.428-3.72-21.635-3.72c-13.506,0-25.059,4.802-34.658,14.4c-9.601,9.601-14.4,21.201-14.4,34.797
				c0,11.117,1.24,18.328,3.72,21.635L1427.226,431.69z"/>
		</g>
	</g>
</g>
</svg>
